<svg xmlns="http://www.w3.org/2000/svg" version="1.1" xmlns:xlink="http://www.w3.org/1999/xlink" xmlns:svgjs="http://svgjs.dev/svgjs" width="1000" height="1000" viewBox="0 0 1000 1000"><rect width="1000" height="1000" fill="#471aa0"></rect><g transform="matrix(0.7,0,0,0.7,150.07466666666664,317.845776)"><svg viewBox="0 0 375 195" data-background-color="#471aa0" preserveAspectRatio="xMidYMid meet" height="520" width="1000" xmlns="http://www.w3.org/2000/svg" xmlns:xlink="http://www.w3.org/1999/xlink"><g id="tight-bounds" transform="matrix(1,0,0,1,-0.03976000000000113,0.08261999999997727)"><svg viewBox="0 0 375.07953 194.83476000000005" height="194.83476000000005" width="375.07953"><g><svg></svg></g><g><svg viewBox="0 0 375.07953 194.83476000000005" height="194.83476000000005" width="375.07953"><g transform="matrix(1,0,0,1,-10.22024,-26.48572999999999)"><path d="M10.22 220.714v-194.228h375.08v194.228h-119.616l0-5.875h113.741v-182.478h-363.33v182.478h20.793l0 5.875z" fill="#ffffff" fill-rule="nonzero" stroke="none" stroke-width="1" stroke-linecap="butt" stroke-linejoin="miter" stroke-miterlimit="10" stroke-dasharray="" stroke-dashoffset="0" font-family="none" font-weight="none" font-size="none" text-anchor="none" style="mix-blend-mode: normal" data-fill-palette-color="tertiary"></path><g><path d="M55.726 211.996l1.452 6.297 0.178 1.214 0.259-1.092 1.819-6.419h1.022l1.775 6.419 0.254 1.11 0.196-1.237 1.426-6.292h1.221l-2.23 9.198h-1.105l-1.897-6.702-0.144-0.701-0.145 0.701-1.964 6.702h-1.108l-2.222-9.198zM71.727 221.194h-1.227c-0.067-0.135-0.122-0.374-0.163-0.72v0c-0.543 0.564-1.192 0.846-1.946 0.846v0c-0.674 0-1.227-0.191-1.658-0.571-0.431-0.381-0.647-0.864-0.647-1.449v0c0-0.712 0.27-1.265 0.81-1.659 0.542-0.395 1.303-0.593 2.285-0.592v0h1.135v-0.536c0-0.409-0.122-0.734-0.364-0.975-0.245-0.243-0.605-0.365-1.082-0.365v0c-0.416 0-0.765 0.105-1.048 0.316-0.283 0.21-0.424 0.466-0.424 0.765v0h-1.175c0-0.342 0.122-0.671 0.365-0.988 0.241-0.319 0.57-0.571 0.986-0.755 0.414-0.185 0.869-0.277 1.366-0.277v0c0.788 0 1.405 0.197 1.85 0.59 0.447 0.393 0.679 0.936 0.696 1.627v0 3.144c0 0.628 0.08 1.127 0.241 1.498v0zM68.562 220.304v0c0.366 0 0.712-0.095 1.04-0.285 0.329-0.19 0.567-0.436 0.714-0.74v0-1.402h-0.916c-1.432 0-2.147 0.419-2.147 1.257v0c0 0.367 0.122 0.654 0.367 0.859 0.243 0.207 0.557 0.31 0.942 0.311zM73.734 212.705h1.17v1.653h1.275v0.905h-1.275v4.239c0 0.273 0.057 0.478 0.171 0.615 0.114 0.136 0.307 0.204 0.579 0.205v0c0.135 0 0.32-0.025 0.556-0.075v0 0.947c-0.307 0.085-0.606 0.127-0.897 0.126v0c-0.521 0-0.914-0.158-1.18-0.473-0.266-0.316-0.398-0.764-0.399-1.345v0-4.238h-1.244v-0.906h1.244zM80.285 220.366v0c0.417 0 0.781-0.126 1.092-0.378 0.312-0.254 0.485-0.57 0.518-0.95v0h1.107c-0.022 0.393-0.158 0.767-0.406 1.121-0.248 0.354-0.58 0.636-0.994 0.846-0.416 0.21-0.855 0.316-1.317 0.315v0c-0.931 0-1.671-0.31-2.22-0.931-0.55-0.621-0.825-1.47-0.825-2.549v0-0.196c0-0.666 0.122-1.257 0.368-1.775 0.243-0.517 0.593-0.919 1.05-1.206 0.457-0.286 0.997-0.429 1.62-0.429v0c0.768 0 1.405 0.229 1.912 0.688 0.507 0.459 0.778 1.055 0.812 1.788v0h-1.107c-0.033-0.443-0.2-0.807-0.502-1.092-0.3-0.283-0.672-0.424-1.115-0.424v0c-0.593 0-1.053 0.213-1.379 0.639-0.326 0.428-0.489 1.046-0.489 1.855v0 0.22c0 0.788 0.162 1.395 0.486 1.821 0.324 0.424 0.787 0.636 1.389 0.637zM85.483 211.491v3.695c0.517-0.635 1.191-0.952 2.021-0.952v0c1.445 0 2.174 0.814 2.186 2.442v0 4.518h-1.169v-4.523c-0.003-0.493-0.116-0.857-0.336-1.092-0.221-0.236-0.565-0.354-1.033-0.354v0c-0.379 0-0.712 0.101-0.998 0.302-0.286 0.202-0.51 0.467-0.671 0.797v0 4.87h-1.169v-9.703zM99.897 216.141v0.991h-3.857v4.062h-1.214v-9.198h5.698v0.998h-4.484v3.147zM105.9 221.194l-0.026-0.676c-0.455 0.535-1.123 0.802-2.002 0.802v0c-0.728 0-1.282-0.212-1.664-0.636-0.381-0.423-0.574-1.049-0.58-1.878v0-4.448h1.17v4.417c0 1.037 0.421 1.555 1.262 1.555v0c0.893 0 1.488-0.333 1.783-0.999v0-4.973h1.167v6.836zM110.055 211.491v9.703h-1.167v-9.703zM113.196 211.491v9.703h-1.169v-9.703zM118.451 211.996h1.566l3.006 7.506 3.009-7.506h1.571v9.198h-1.211v-3.581l0.114-3.866-3.02 7.447h-0.929l-3.014-7.429 0.122 3.848v3.581h-1.214zM129.253 217.797v-0.083c0-0.669 0.131-1.271 0.394-1.806 0.264-0.536 0.63-0.95 1.099-1.24 0.469-0.29 1.005-0.435 1.607-0.434v0c0.931 0 1.684 0.322 2.259 0.965 0.574 0.645 0.862 1.502 0.861 2.572v0 0.08c0 0.666-0.127 1.263-0.38 1.793-0.255 0.528-0.62 0.939-1.094 1.234-0.473 0.295-1.017 0.442-1.633 0.442v0c-0.926 0-1.677-0.323-2.251-0.967-0.574-0.643-0.862-1.495-0.862-2.556zM130.428 217.851v0c0 0.759 0.176 1.368 0.528 1.827 0.35 0.459 0.82 0.688 1.41 0.688v0c0.593 0 1.065-0.233 1.415-0.699 0.35-0.464 0.525-1.115 0.525-1.953v0c0-0.75-0.179-1.358-0.535-1.824-0.355-0.464-0.828-0.696-1.418-0.696v0c-0.576 0-1.041 0.229-1.395 0.688-0.354 0.459-0.53 1.115-0.53 1.969zM137.362 214.358l1.739 5.25 1.692-5.25h1.195l-2.453 6.836h-0.89l-2.476-6.836zM144.382 214.358v6.836h-1.17v-6.836zM143.119 212.547v0c0-0.19 0.058-0.35 0.173-0.481 0.116-0.131 0.287-0.197 0.515-0.197 0.226 0 0.398 0.066 0.518 0.197 0.117 0.131 0.176 0.292 0.176 0.481 0 0.19-0.059 0.348-0.176 0.473-0.119 0.126-0.292 0.189-0.518 0.189-0.228 0-0.399-0.063-0.515-0.189-0.116-0.126-0.173-0.284-0.173-0.473zM149.088 221.32v0c-0.926 0-1.68-0.304-2.261-0.913-0.581-0.609-0.872-1.423-0.872-2.442v0-0.215c0-0.678 0.129-1.282 0.388-1.814 0.259-0.533 0.621-0.95 1.086-1.252 0.466-0.3 0.97-0.45 1.514-0.45v0c0.888 0 1.578 0.292 2.07 0.877 0.493 0.585 0.74 1.423 0.74 2.515v0 0.486h-4.631c0.017 0.673 0.215 1.217 0.592 1.633 0.376 0.414 0.855 0.621 1.436 0.621v0c0.412 0 0.762-0.084 1.048-0.251 0.286-0.169 0.537-0.392 0.753-0.67v0l0.714 0.556c-0.573 0.88-1.432 1.32-2.577 1.319zM148.943 215.194v0c-0.473 0-0.868 0.172-1.188 0.515-0.321 0.343-0.519 0.824-0.595 1.441v0h3.423v-0.088c-0.033-0.593-0.192-1.053-0.478-1.379-0.286-0.326-0.674-0.489-1.162-0.489zM157.083 219.38v0c0-0.316-0.118-0.561-0.355-0.735-0.238-0.174-0.653-0.325-1.244-0.453-0.592-0.126-1.062-0.277-1.41-0.452-0.347-0.178-0.604-0.389-0.771-0.634-0.166-0.243-0.248-0.534-0.249-0.872v0c0-0.559 0.237-1.032 0.712-1.421 0.473-0.386 1.077-0.58 1.814-0.579v0c0.776 0 1.405 0.2 1.886 0.6 0.483 0.398 0.724 0.91 0.724 1.534v0h-1.174c0-0.321-0.136-0.597-0.409-0.828-0.271-0.231-0.613-0.347-1.027-0.346v0c-0.424 0-0.756 0.092-0.997 0.277-0.24 0.186-0.36 0.429-0.359 0.727v0c0 0.281 0.111 0.493 0.334 0.636 0.223 0.143 0.625 0.28 1.208 0.411 0.585 0.131 1.058 0.287 1.42 0.469 0.362 0.181 0.63 0.398 0.805 0.652 0.174 0.255 0.261 0.567 0.261 0.934v0c0 0.611-0.244 1.1-0.732 1.467-0.488 0.369-1.122 0.554-1.902 0.553v0c-0.547 0-1.031-0.097-1.451-0.289-0.423-0.195-0.753-0.466-0.991-0.813-0.236-0.348-0.354-0.724-0.355-1.128v0h1.167c0.021 0.392 0.178 0.702 0.471 0.932 0.293 0.229 0.68 0.344 1.159 0.344v0c0.442 0 0.796-0.09 1.064-0.269 0.267-0.178 0.401-0.417 0.401-0.717zM170.234 216.311v0.58c0 0.902-0.151 1.689-0.453 2.36-0.304 0.673-0.733 1.186-1.288 1.539-0.557 0.354-1.206 0.53-1.946 0.53v0c-0.724 0-1.367-0.178-1.927-0.533-0.561-0.357-0.995-0.865-1.304-1.523-0.31-0.659-0.469-1.422-0.476-2.29v0-0.663c0-0.885 0.154-1.666 0.46-2.344 0.307-0.678 0.742-1.197 1.304-1.557 0.562-0.36 1.206-0.541 1.93-0.541v0c0.737 0 1.386 0.179 1.949 0.535 0.562 0.355 0.995 0.871 1.298 1.548 0.302 0.676 0.453 1.463 0.453 2.359zM169.029 216.981v-0.683c0-1.09-0.219-1.928-0.658-2.512-0.438-0.583-1.05-0.875-1.837-0.874v0c-0.768 0-1.371 0.292-1.811 0.874-0.44 0.585-0.666 1.395-0.678 2.43v0 0.675c0 1.057 0.222 1.889 0.665 2.494 0.445 0.604 1.057 0.906 1.837 0.906v0c0.783 0 1.389-0.285 1.819-0.857 0.429-0.571 0.65-1.389 0.663-2.453zM171.872 214.358h1.105l0.039 0.859c0.521-0.655 1.203-0.983 2.046-0.983v0c1.444 0 2.172 0.814 2.184 2.442v0 4.518h-1.167v-4.523c-0.005-0.493-0.118-0.857-0.339-1.092-0.221-0.236-0.565-0.354-1.032-0.354v0c-0.379 0-0.712 0.101-0.999 0.302-0.286 0.202-0.51 0.467-0.67 0.797v0 4.87h-1.167zM180.278 211.491v9.703h-1.167v-9.703zM183.419 214.358v6.836h-1.169v-6.836zM182.154 212.547v0c0-0.19 0.059-0.35 0.176-0.481 0.116-0.131 0.287-0.197 0.515-0.197 0.226 0 0.398 0.066 0.517 0.197 0.117 0.131 0.176 0.292 0.176 0.481 0 0.19-0.059 0.348-0.176 0.473-0.119 0.126-0.292 0.189-0.517 0.189-0.228 0-0.399-0.063-0.515-0.189-0.117-0.126-0.176-0.284-0.176-0.473zM185.287 214.358h1.108l0.036 0.859c0.523-0.655 1.205-0.983 2.047-0.983v0c1.445 0 2.174 0.814 2.186 2.442v0 4.518h-1.17v-4.523c-0.003-0.493-0.116-0.857-0.336-1.092-0.221-0.236-0.565-0.354-1.032-0.354v0c-0.379 0-0.712 0.101-0.999 0.302-0.286 0.202-0.51 0.467-0.67 0.797v0 4.87h-1.17zM195.262 221.32v0c-0.926 0-1.68-0.304-2.262-0.913-0.581-0.609-0.872-1.423-0.872-2.442v0-0.215c0-0.678 0.13-1.282 0.391-1.814 0.259-0.533 0.62-0.95 1.084-1.252 0.466-0.3 0.97-0.45 1.514-0.45v0c0.888 0 1.579 0.292 2.072 0.877 0.493 0.585 0.74 1.423 0.74 2.515v0 0.486h-4.631c0.017 0.673 0.214 1.217 0.59 1.633 0.378 0.414 0.857 0.621 1.438 0.621v0c0.412 0 0.762-0.084 1.048-0.251 0.286-0.169 0.537-0.392 0.753-0.67v0l0.712 0.556c-0.573 0.88-1.432 1.32-2.577 1.319zM195.117 215.194v0c-0.471 0-0.867 0.172-1.188 0.515-0.319 0.343-0.517 0.824-0.592 1.441v0h3.423v-0.088c-0.035-0.593-0.195-1.053-0.482-1.379-0.286-0.326-0.674-0.489-1.161-0.489zM207.738 216.141v0.991h-3.861v4.062h-1.21v-9.198h5.697v0.998h-4.487v3.147zM209.192 217.797v-0.083c0-0.669 0.131-1.271 0.393-1.806 0.264-0.536 0.63-0.95 1.1-1.24 0.469-0.29 1.005-0.435 1.606-0.434v0c0.931 0 1.684 0.322 2.259 0.965 0.574 0.645 0.862 1.502 0.862 2.572v0 0.08c0 0.666-0.127 1.263-0.381 1.793-0.255 0.528-0.62 0.939-1.094 1.234-0.473 0.295-1.017 0.442-1.633 0.442v0c-0.926 0-1.677-0.323-2.251-0.967-0.574-0.643-0.862-1.495-0.861-2.556zM210.366 217.851v0c0 0.759 0.176 1.368 0.528 1.827 0.35 0.459 0.82 0.688 1.41 0.688v0c0.593 0 1.065-0.233 1.416-0.699 0.35-0.464 0.525-1.115 0.525-1.953v0c0-0.75-0.179-1.358-0.536-1.824-0.355-0.464-0.828-0.696-1.418-0.696v0c-0.576 0-1.041 0.229-1.394 0.688-0.354 0.459-0.53 1.115-0.531 1.969zM220.183 214.322v1.086c-0.178-0.029-0.369-0.044-0.575-0.044v0c-0.768 0-1.288 0.326-1.562 0.978v0 4.852h-1.167v-6.836h1.136l0.02 0.792c0.383-0.611 0.925-0.916 1.628-0.916v0c0.228 0 0.401 0.029 0.52 0.088zM229.715 216.141v0.991h-3.861v4.062h-1.213v-9.198h5.697v0.998h-4.484v3.147zM234.75 214.322v1.086c-0.178-0.029-0.37-0.044-0.577-0.044v0c-0.766 0-1.286 0.326-1.561 0.978v0 4.852h-1.166v-6.836h1.135l0.018 0.792c0.385-0.611 0.928-0.916 1.63-0.916v0c0.228 0 0.401 0.029 0.521 0.088zM238.537 221.32v0c-0.926 0-1.68-0.304-2.261-0.913-0.581-0.609-0.872-1.423-0.872-2.442v0-0.215c0-0.678 0.13-1.282 0.391-1.814 0.259-0.533 0.621-0.95 1.087-1.252 0.464-0.3 0.968-0.45 1.511-0.45v0c0.888 0 1.579 0.292 2.072 0.877 0.493 0.585 0.74 1.423 0.74 2.515v0 0.486h-4.631c0.017 0.673 0.214 1.217 0.59 1.633 0.378 0.414 0.857 0.621 1.438 0.621v0c0.412 0 0.762-0.084 1.048-0.251 0.286-0.169 0.537-0.392 0.753-0.67v0l0.714 0.556c-0.574 0.88-1.434 1.32-2.58 1.319zM238.393 215.194v0c-0.471 0-0.867 0.172-1.188 0.515-0.319 0.343-0.517 0.824-0.593 1.441v0h3.423v-0.088c-0.035-0.593-0.195-1.053-0.481-1.379-0.286-0.326-0.674-0.489-1.161-0.489zM245.391 221.32v0c-0.926 0-1.68-0.304-2.261-0.913-0.581-0.609-0.872-1.423-0.872-2.442v0-0.215c0-0.678 0.13-1.282 0.391-1.814 0.259-0.533 0.62-0.95 1.084-1.252 0.466-0.3 0.97-0.45 1.513-0.45v0c0.888 0 1.579 0.292 2.073 0.877 0.493 0.585 0.74 1.423 0.74 2.515v0 0.486h-4.631c0.017 0.673 0.214 1.217 0.589 1.633 0.378 0.414 0.857 0.621 1.439 0.621v0c0.412 0 0.762-0.084 1.048-0.251 0.286-0.169 0.537-0.392 0.753-0.67v0l0.711 0.556c-0.573 0.88-1.432 1.32-2.577 1.319zM245.246 215.194v0c-0.471 0-0.867 0.172-1.187 0.515-0.319 0.343-0.517 0.824-0.593 1.441v0h3.423v-0.088c-0.035-0.593-0.195-1.053-0.481-1.379-0.286-0.326-0.674-0.489-1.162-0.489z" fill="#ffffff" fill-rule="nonzero" stroke="none" stroke-width="1" stroke-linecap="butt" stroke-linejoin="miter" stroke-miterlimit="10" stroke-dasharray="" stroke-dashoffset="0" font-family="none" font-weight="none" font-size="none" text-anchor="none" style="mix-blend-mode: normal" data-fill-palette-color="secondary"></path></g></g><g transform="matrix(1,0,0,1,29.33176499999999,64.84389317912859)"><svg viewBox="0 0 316.416 65.14697364174287" height="65.14697364174287" width="316.416"><g><svg viewBox="0 0 316.416 65.14697364174287" height="65.14697364174287" width="316.416"><g><svg viewBox="0 0 316.416 65.14697364174287" height="65.14697364174287" width="316.416"><g id="textblocktransform"><svg viewBox="0 0 316.416 65.14697364174287" height="65.14697364174287" width="316.416" id="textblock"><g><svg viewBox="0 0 316.416 65.14697364174287" height="65.14697364174287" width="316.416"><g transform="matrix(1,0,0,1,0,0)"><svg width="316.416" viewBox="3.2 -36.82 181.53 37.38" height="65.14697364174287" data-palette-color="#ffffff"><path d="M6.98-2.64L6.98-34.18 3.2-34.74 3.2-36.82 18.87-36.82Q28.56-36.82 33.96-32.08L33.96-32.08Q39.23-27.42 39.23-19.31L39.23-19.31Q39.23-13.48 36.52-8.89L36.52-8.89Q34.03-4.66 29.61-2.29L29.61-2.29Q25.32 0 20.36 0L20.36 0 3.2 0 3.2-2.08 6.98-2.64ZM18.75-33.86L11.5-33.86 11.5-2.93 20.31-2.93Q26.44-2.93 30.47-6.79L30.47-6.79Q34.62-10.82 34.62-17.31L34.62-17.31Q34.62-29.74 25.93-32.81L25.93-32.81Q22.92-33.86 18.75-33.86L18.75-33.86ZM63.23-5.59L63.23-5.59 64.62-4Q60.74-0.51 57.1 0.37L57.1 0.37Q56.3 0.56 55.52 0.56L55.52 0.56Q50.14 0.56 46.77-2.83L46.77-2.83Q43.43-6.15 43.43-11.5L43.43-11.5Q43.43-16.82 46.58-20.61L46.58-20.61Q50.05-24.73 55.59-24.73L55.59-24.73Q59.42-24.73 62.06-21.97L62.06-21.97Q64.87-19.09 64.87-14.48L64.87-14.48 63.72-13.45 47.8-12.3Q47.85-7.86 50.68-5.2L50.68-5.2Q53.22-2.86 56.59-2.86 59.96-2.86 63.23-5.59ZM47.97-14.6L47.97-14.6 60.52-15.75Q60.35-19.8 57.39-21.31L57.39-21.31Q56.35-21.85 54.71-21.85 53.07-21.85 51.79-21.04 50.51-20.24 49.68-19.09L49.68-19.09Q48.09-16.92 47.97-14.6ZM91.16-3.56L91.6-1.27Q88.03 0.56 86.45 0.56L86.45 0.56Q82.88 0.56 82.88-2.47L82.88-2.47 82.88-3.22Q82.54-2.71 81.01-1.73 79.49-0.76 78.63-0.37L78.63-0.37Q76.61 0.56 75.56 0.56 74.51 0.56 73.82 0.48 73.14 0.39 72.41 0.15 71.67-0.1 70.97-0.54 70.26-0.98 69.7-1.68L69.7-1.68Q68.45-3.25 68.45-5.76L68.45-5.76Q68.45-9.23 70.92-10.6L70.92-10.6Q72.48-11.5 74.23-11.72 75.97-11.94 77.41-12.06L77.41-12.06Q80.15-12.3 82.88-12.35L82.88-12.35 82.88-17.48Q82.88-19.6 82.34-20.31L82.34-20.31Q81.44-21.56 79.54-21.56L79.54-21.56Q75.29-21.56 71.19-18.8L71.19-18.8 69.77-20.92Q75.48-24.73 80-24.73L80-24.73Q83.93-24.73 85.57-22.56L85.57-22.56Q86.84-20.87 86.84-17.77L86.84-17.77 86.84-4.93Q86.84-3.13 87.52-2.88L87.52-2.88Q87.76-2.81 88.15-2.81L88.15-2.81Q89.13-2.81 91.16-3.56L91.16-3.56ZM82.88-5.47L82.88-10.3Q75.95-10.03 73.99-8.91L73.99-8.91Q72.5-8.06 72.5-6.15L72.5-6.15Q72.5-3.39 74.63-2.76L74.63-2.76Q75.21-2.59 76.06-2.59 76.9-2.59 78.02-2.93 79.15-3.27 80.1-3.76L80.1-3.76Q81.9-4.64 82.88-5.47L82.88-5.47ZM95.89-2.59L95.89-20.36 92.77-20.92 92.77-22.95 99.85-24.73 99.85-18.51Q105.46-24.73 108.29-24.73L108.29-24.73Q110.61-24.73 112.57-22.88L112.57-22.88 111.3-18.92 110.15-18.92Q110.15-20.12 108.32-20.7L108.32-20.7Q107.81-20.85 107.29-20.85L107.29-20.85Q104.7-20.85 99.85-15.65L99.85-15.65 99.85-2.59 104.68-2.03 104.68 0 92.77 0 92.77-2.03 95.89-2.59ZM115.79-36.82L146.89-36.82 147.48-28.98 145.28-28.98 144.03-33.86 133.61-33.86 133.61-2.64 138.98-2.08 138.98 0 123.72 0 123.72-2.08 129.04-2.64 129.04-33.86 118.67-33.86 117.35-28.98 115.2-28.98 115.79-36.82ZM156.34-34.18L167.57-6.03 178.75-34.18 175.11-34.74 175.11-36.82 184.73-36.82 184.73-34.74 181.97-34.28 168.37 0 165.73 0 151.7-34.18 148.79-34.74 148.79-36.82 160.09-36.82 160.09-34.74 156.34-34.18Z" opacity="1" transform="matrix(1,0,0,1,0,0)" fill="#ffffff" class="undefined-text-0" data-fill-palette-color="primary" id="text-0"></path></svg></g></svg></g></svg></g></svg></g></svg></g></svg></g></svg></g><defs></defs></svg><rect width="375.07953" height="194.83476000000005" fill="none" stroke="none" visibility="hidden"></rect></g></svg></g></svg>